<svg xmlns="http://www.w3.org/2000/svg" width="256" height="256" viewBox="0 0 256 256">
  <g id="Icons">
    <g>
      <circle cx="178.33" cy="196.83" r="33.34" style="fill: none;stroke: #003c74;stroke-miterlimit: 10;stroke-width: 4px"/>
      <rect x="132.23" y="213.73" width="15.89" height="42.78" transform="translate(207.31 -30.26) rotate(45)" style="fill: #003c74"/>
      <path d="M178.66,215a17.7,17.7,0,0,0,3-.28l3.77,3.73a22.71,22.71,0,0,0,4-1.74l-.11-5.29a18.52,18.52,0,0,0,2.26-2l5.23.8a22.43,22.43,0,0,0,2.24-3.77l-3.21-4.24a13.88,13.88,0,0,0,.39-1.44c.1-.49.2-1,.26-1.48l4.71-2.43a22.06,22.06,0,0,0-.38-4.37L195.76,191a18.68,18.68,0,0,0-1.19-2.76l2.38-4.73a23.32,23.32,0,0,0-2.89-3.3l-5,1.74a18.12,18.12,0,0,0-2.58-1.54l-.86-5.22c-.69-.22-1.39-.42-2.12-.58s-1.44-.29-2.16-.39l-3,4.35a18.78,18.78,0,0,0-3,.27l-3.76-3.72a22.49,22.49,0,0,0-4,1.74l.11,5.31a17.63,17.63,0,0,0-2.26,2l-5.23-.82a22.43,22.43,0,0,0-2.24,3.77l3.21,4.24a14.59,14.59,0,0,0-.39,1.44c-.1.5-.19,1-.26,1.48l-4.73,2.44a22,22,0,0,0,.38,4.36l5.07,1.54a18.68,18.68,0,0,0,1.19,2.76L160,210.11a23.32,23.32,0,0,0,2.89,3.3l5-1.74a18.7,18.7,0,0,0,2.58,1.54l.86,5.23c.69.22,1.4.42,2.12.58a19.53,19.53,0,0,0,2.16.39ZM176,207.66a11.13,11.13,0,1,1,13.31-8.42v0A11.13,11.13,0,0,1,176,207.66Z" style="fill: #009fe3"/>
    </g>
    <path d="M199.12,161.5c-3.11-23.12-9.3-39.08-34.47-39.08-10.21,0-32.41,13.4-37.5,13.4s-25.25-13.4-35.43-13.4c-35,0-32.66,20.59-35.6,48.89-.61,5.83-1,28.55-1.25,55.17h58.41" style="fill: none;stroke: #003c74;stroke-miterlimit: 10;stroke-width: 4px"/>
    <path d="M173.33,58.81c0,26-26.25,47.15-47.16,47.15S79,84.79,79,58.81,100.15,9.87,126.17,9.87,173.33,32.73,173.33,58.81Z" style="fill: none;stroke: #003c74;stroke-miterlimit: 10;stroke-width: 4px"/>
  </g>
</svg>
